<svg xmlns="http://www.w3.org/2000/svg" xmlns:xlink="http://www.w3.org/1999/xlink" width="500" zoomAndPan="magnify" viewBox="0 0 375 374.999991" height="500" preserveAspectRatio="xMidYMid meet" version="1.0"><defs><g/><clipPath id="0b42174c77"><path d="M 42 122 L 97 122 L 97 179 L 42 179 Z M 42 122 " clip-rule="nonzero"/></clipPath><clipPath id="0d3760d388"><path d="M 37.5 163.933594 L 73.019531 111 L 107.894531 134.398438 L 72.375 187.335938 Z M 37.5 163.933594 " clip-rule="nonzero"/></clipPath><clipPath id="58f58ac4c0"><path d="M 37.5 163.933594 L 73.019531 111 L 107.894531 134.398438 L 72.375 187.335938 Z M 37.5 163.933594 " clip-rule="nonzero"/></clipPath><clipPath id="5199d468d1"><path d="M 44 123 L 96 123 L 96 177 L 44 177 Z M 44 123 " clip-rule="nonzero"/></clipPath><clipPath id="362fd21736"><path d="M 37.5 163.933594 L 73.019531 111 L 107.894531 134.398438 L 72.375 187.335938 Z M 37.5 163.933594 " clip-rule="nonzero"/></clipPath><clipPath id="97ca11a45f"><path d="M 37.5 163.933594 L 73.019531 111 L 107.894531 134.398438 L 72.375 187.335938 Z M 37.5 163.933594 " clip-rule="nonzero"/></clipPath><clipPath id="114e8f2bdb"><path d="M 49 164 L 60 164 L 60 169 L 49 169 Z M 49 164 " clip-rule="nonzero"/></clipPath><clipPath id="e880dc417c"><path d="M 37.5 163.933594 L 73.019531 111 L 107.894531 134.398438 L 72.375 187.335938 Z M 37.5 163.933594 " clip-rule="nonzero"/></clipPath><clipPath id="d4ab30732a"><path d="M 37.5 163.933594 L 73.019531 111 L 107.894531 134.398438 L 72.375 187.335938 Z M 37.5 163.933594 " clip-rule="nonzero"/></clipPath><clipPath id="ea38d18c97"><path d="M 64 136 L 74 136 L 74 148 L 64 148 Z M 64 136 " clip-rule="nonzero"/></clipPath><clipPath id="b5c9ad0b70"><path d="M 37.5 163.933594 L 73.019531 111 L 107.894531 134.398438 L 72.375 187.335938 Z M 37.5 163.933594 " clip-rule="nonzero"/></clipPath><clipPath id="e9f852740d"><path d="M 37.5 163.933594 L 73.019531 111 L 107.894531 134.398438 L 72.375 187.335938 Z M 37.5 163.933594 " clip-rule="nonzero"/></clipPath><clipPath id="0ec651af9f"><path d="M 64 133 L 95 133 L 95 160 L 64 160 Z M 64 133 " clip-rule="nonzero"/></clipPath><clipPath id="8352a7adf4"><path d="M 37.5 163.933594 L 73.019531 111 L 107.894531 134.398438 L 72.375 187.335938 Z M 37.5 163.933594 " clip-rule="nonzero"/></clipPath><clipPath id="891922682c"><path d="M 37.5 163.933594 L 73.019531 111 L 107.894531 134.398438 L 72.375 187.335938 Z M 37.5 163.933594 " clip-rule="nonzero"/></clipPath><clipPath id="9fa3dc927d"><path d="M 56 144 L 70 144 L 70 150 L 56 150 Z M 56 144 " clip-rule="nonzero"/></clipPath><clipPath id="07fa4d83a4"><path d="M 37.5 163.933594 L 73.019531 111 L 107.894531 134.398438 L 72.375 187.335938 Z M 37.5 163.933594 " clip-rule="nonzero"/></clipPath><clipPath id="c8917d7abb"><path d="M 37.5 163.933594 L 73.019531 111 L 107.894531 134.398438 L 72.375 187.335938 Z M 37.5 163.933594 " clip-rule="nonzero"/></clipPath><clipPath id="d281331afb"><path d="M 84 145 L 89 145 L 89 150 L 84 150 Z M 84 145 " clip-rule="nonzero"/></clipPath><clipPath id="0139119e16"><path d="M 37.5 163.933594 L 73.019531 111 L 107.894531 134.398438 L 72.375 187.335938 Z M 37.5 163.933594 " clip-rule="nonzero"/></clipPath><clipPath id="8be670303c"><path d="M 37.5 163.933594 L 73.019531 111 L 107.894531 134.398438 L 72.375 187.335938 Z M 37.5 163.933594 " clip-rule="nonzero"/></clipPath><clipPath id="e76481e4c4"><path d="M 71 136 L 90 136 L 90 153 L 71 153 Z M 71 136 " clip-rule="nonzero"/></clipPath><clipPath id="6cc7a59aa6"><path d="M 37.5 163.933594 L 73.019531 111 L 107.894531 134.398438 L 72.375 187.335938 Z M 37.5 163.933594 " clip-rule="nonzero"/></clipPath><clipPath id="7594bb1ce3"><path d="M 37.5 163.933594 L 73.019531 111 L 107.894531 134.398438 L 72.375 187.335938 Z M 37.5 163.933594 " clip-rule="nonzero"/></clipPath><clipPath id="2c6ee44292"><path d="M 64 150 L 77 150 L 77 160 L 64 160 Z M 64 150 " clip-rule="nonzero"/></clipPath><clipPath id="9155315470"><path d="M 37.5 163.933594 L 73.019531 111 L 107.894531 134.398438 L 72.375 187.335938 Z M 37.5 163.933594 " clip-rule="nonzero"/></clipPath><clipPath id="488549651e"><path d="M 37.5 163.933594 L 73.019531 111 L 107.894531 134.398438 L 72.375 187.335938 Z M 37.5 163.933594 " clip-rule="nonzero"/></clipPath><clipPath id="396e120f71"><path d="M 55 164 L 61 164 L 61 169 L 55 169 Z M 55 164 " clip-rule="nonzero"/></clipPath><clipPath id="636f10094d"><path d="M 37.5 163.933594 L 73.019531 111 L 107.894531 134.398438 L 72.375 187.335938 Z M 37.5 163.933594 " clip-rule="nonzero"/></clipPath><clipPath id="a5474b4958"><path d="M 37.5 163.933594 L 73.019531 111 L 107.894531 134.398438 L 72.375 187.335938 Z M 37.5 163.933594 " clip-rule="nonzero"/></clipPath></defs><g fill="#ffffff" fill-opacity="1"><g transform="translate(61.915386, 200.559654)"><g><path d="M 24.484375 -12.109375 L 17.453125 -12.109375 L 17.453125 0 L 4.5625 0 L 4.5625 -45.578125 L 25.390625 -45.578125 C 29.515625 -45.578125 33.09375 -44.890625 36.125 -43.515625 C 39.164062 -42.148438 41.507812 -40.195312 43.15625 -37.65625 C 44.8125 -35.125 45.640625 -32.144531 45.640625 -28.71875 C 45.640625 -25.414062 44.867188 -22.535156 43.328125 -20.078125 C 41.785156 -17.628906 39.582031 -15.710938 36.71875 -14.328125 L 46.546875 0 L 32.75 0 Z M 32.625 -28.71875 C 32.625 -30.84375 31.945312 -32.488281 30.59375 -33.65625 C 29.25 -34.832031 27.253906 -35.421875 24.609375 -35.421875 L 17.453125 -35.421875 L 17.453125 -22.078125 L 24.609375 -22.078125 C 27.253906 -22.078125 29.25 -22.648438 30.59375 -23.796875 C 31.945312 -24.941406 32.625 -26.582031 32.625 -28.71875 Z M 32.625 -28.71875 "/></g></g></g><g fill="#ffffff" fill-opacity="1"><g transform="translate(105.139255, 200.559654)"><g><path d="M 40.046875 -17.578125 C 40.046875 -17.492188 39.976562 -16.472656 39.84375 -14.515625 L 14.1875 -14.515625 C 14.707031 -12.691406 15.71875 -11.289062 17.21875 -10.3125 C 18.71875 -9.34375 20.597656 -8.859375 22.859375 -8.859375 C 24.546875 -8.859375 26.007812 -9.09375 27.25 -9.5625 C 28.488281 -10.039062 29.734375 -10.828125 30.984375 -11.921875 L 37.5 -5.140625 C 34.070312 -1.316406 29.0625 0.59375 22.46875 0.59375 C 18.34375 0.59375 14.71875 -0.1875 11.59375 -1.75 C 8.46875 -3.320312 6.046875 -5.492188 4.328125 -8.265625 C 2.617188 -11.046875 1.765625 -14.191406 1.765625 -17.703125 C 1.765625 -21.179688 2.597656 -24.296875 4.265625 -27.046875 C 5.929688 -29.804688 8.238281 -31.96875 11.1875 -33.53125 C 14.144531 -35.09375 17.46875 -35.875 21.15625 -35.875 C 24.675781 -35.875 27.867188 -35.144531 30.734375 -33.6875 C 33.597656 -32.238281 35.863281 -30.132812 37.53125 -27.375 C 39.207031 -24.625 40.046875 -21.359375 40.046875 -17.578125 Z M 21.21875 -27.078125 C 19.3125 -27.078125 17.71875 -26.535156 16.4375 -25.453125 C 15.15625 -24.367188 14.34375 -22.894531 14 -21.03125 L 28.453125 -21.03125 C 28.109375 -22.894531 27.296875 -24.367188 26.015625 -25.453125 C 24.734375 -26.535156 23.132812 -27.078125 21.21875 -27.078125 Z M 21.21875 -27.078125 "/></g></g></g><g fill="#ffffff" fill-opacity="1"><g transform="translate(141.983568, 200.559654)"><g><path d="M 22 0.59375 C 18.09375 0.59375 14.597656 -0.1875 11.515625 -1.75 C 8.441406 -3.320312 6.046875 -5.492188 4.328125 -8.265625 C 2.617188 -11.046875 1.765625 -14.191406 1.765625 -17.703125 C 1.765625 -21.222656 2.617188 -24.359375 4.328125 -27.109375 C 6.046875 -29.867188 8.441406 -32.019531 11.515625 -33.5625 C 14.597656 -35.101562 18.09375 -35.875 22 -35.875 C 26 -35.875 29.453125 -35.015625 32.359375 -33.296875 C 35.265625 -31.585938 37.328125 -29.210938 38.546875 -26.171875 L 28.96875 -21.296875 C 27.363281 -24.460938 25.019531 -26.046875 21.9375 -26.046875 C 19.726562 -26.046875 17.894531 -25.304688 16.4375 -23.828125 C 14.988281 -22.347656 14.265625 -20.304688 14.265625 -17.703125 C 14.265625 -15.054688 14.988281 -12.984375 16.4375 -11.484375 C 17.894531 -9.992188 19.726562 -9.25 21.9375 -9.25 C 25.019531 -9.25 27.363281 -10.832031 28.96875 -14 L 38.546875 -9.109375 C 37.328125 -6.078125 35.265625 -3.703125 32.359375 -1.984375 C 29.453125 -0.265625 26 0.59375 22 0.59375 Z M 22 0.59375 "/></g></g></g><g fill="#ffffff" fill-opacity="1"><g transform="translate(176.289074, 200.559654)"><g><path d="M 3.96875 -35.296875 L 16.34375 -35.296875 L 16.34375 0 L 3.96875 0 Z M 10.15625 -39.203125 C 7.894531 -39.203125 6.070312 -39.828125 4.6875 -41.078125 C 3.300781 -42.335938 2.609375 -43.898438 2.609375 -45.765625 C 2.609375 -47.640625 3.300781 -49.203125 4.6875 -50.453125 C 6.070312 -51.710938 7.894531 -52.34375 10.15625 -52.34375 C 12.414062 -52.34375 14.238281 -51.742188 15.625 -50.546875 C 17.007812 -49.359375 17.703125 -47.832031 17.703125 -45.96875 C 17.703125 -44.007812 17.007812 -42.390625 15.625 -41.109375 C 14.238281 -39.835938 12.414062 -39.203125 10.15625 -39.203125 Z M 10.15625 -39.203125 "/></g></g></g><g fill="#ffffff" fill-opacity="1"><g transform="translate(191.716281, 200.559654)"><g><path d="M 26.171875 -35.875 C 29.378906 -35.875 32.296875 -35.125 34.921875 -33.625 C 37.554688 -32.125 39.644531 -29.992188 41.1875 -27.234375 C 42.726562 -24.484375 43.5 -21.285156 43.5 -17.640625 C 43.5 -13.992188 42.726562 -10.789062 41.1875 -8.03125 C 39.644531 -5.28125 37.554688 -3.15625 34.921875 -1.65625 C 32.296875 -0.15625 29.378906 0.59375 26.171875 0.59375 C 22.046875 0.59375 18.769531 -0.644531 16.34375 -3.125 L 16.34375 12.625 L 3.96875 12.625 L 3.96875 -35.296875 L 15.75 -35.296875 L 15.75 -31.765625 C 18.050781 -34.503906 21.523438 -35.875 26.171875 -35.875 Z M 23.5625 -9.25 C 25.738281 -9.25 27.519531 -9.992188 28.90625 -11.484375 C 30.289062 -12.984375 30.984375 -15.035156 30.984375 -17.640625 C 30.984375 -20.242188 30.289062 -22.296875 28.90625 -23.796875 C 27.519531 -25.296875 25.738281 -26.046875 23.5625 -26.046875 C 21.394531 -26.046875 19.613281 -25.296875 18.21875 -23.796875 C 16.832031 -22.296875 16.140625 -20.242188 16.140625 -17.640625 C 16.140625 -15.035156 16.832031 -12.984375 18.21875 -11.484375 C 19.613281 -9.992188 21.394531 -9.25 23.5625 -9.25 Z M 23.5625 -9.25 "/></g></g></g><g fill="#ffffff" fill-opacity="1"><g transform="translate(232.010766, 200.559654)"><g><path d="M 40.046875 -17.578125 C 40.046875 -17.492188 39.976562 -16.472656 39.84375 -14.515625 L 14.1875 -14.515625 C 14.707031 -12.691406 15.71875 -11.289062 17.21875 -10.3125 C 18.71875 -9.34375 20.597656 -8.859375 22.859375 -8.859375 C 24.546875 -8.859375 26.007812 -9.09375 27.25 -9.5625 C 28.488281 -10.039062 29.734375 -10.828125 30.984375 -11.921875 L 37.5 -5.140625 C 34.070312 -1.316406 29.0625 0.59375 22.46875 0.59375 C 18.34375 0.59375 14.71875 -0.1875 11.59375 -1.75 C 8.46875 -3.320312 6.046875 -5.492188 4.328125 -8.265625 C 2.617188 -11.046875 1.765625 -14.191406 1.765625 -17.703125 C 1.765625 -21.179688 2.597656 -24.296875 4.265625 -27.046875 C 5.929688 -29.804688 8.238281 -31.96875 11.1875 -33.53125 C 14.144531 -35.09375 17.46875 -35.875 21.15625 -35.875 C 24.675781 -35.875 27.867188 -35.144531 30.734375 -33.6875 C 33.597656 -32.238281 35.863281 -30.132812 37.53125 -27.375 C 39.207031 -24.625 40.046875 -21.359375 40.046875 -17.578125 Z M 21.21875 -27.078125 C 19.3125 -27.078125 17.71875 -26.535156 16.4375 -25.453125 C 15.15625 -24.367188 14.34375 -22.894531 14 -21.03125 L 28.453125 -21.03125 C 28.109375 -22.894531 27.296875 -24.367188 26.015625 -25.453125 C 24.734375 -26.535156 23.132812 -27.078125 21.21875 -27.078125 Z M 21.21875 -27.078125 "/></g></g></g><g fill="#ffffff" fill-opacity="1"><g transform="translate(268.855086, 200.559654)"><g><path d="M 43.109375 -10.21875 L 43.109375 0 L 2.28125 0 L 2.28125 -8.078125 L 25.265625 -35.359375 L 2.859375 -35.359375 L 2.859375 -45.578125 L 42.125 -45.578125 L 42.125 -37.5 L 19.140625 -10.21875 Z M 43.109375 -10.21875 "/></g></g></g><g clip-path="url(#0b42174c77)"><g clip-path="url(#0d3760d388)"><g clip-path="url(#58f58ac4c0)"><path fill="#1b2123" d="M 92.574219 156.28125 C 85.839844 159.066406 78.914062 163.523438 73.074219 168.828125 C 70.171875 171.46875 67.605469 174.25 65.449219 177.09375 L 64.347656 178.546875 L 59.765625 168.28125 C 57.738281 169.644531 53.285156 172.007812 48.535156 170.519531 C 46.234375 169.796875 44.703125 168.632812 43.855469 166.957031 C 42.738281 164.757812 41.246094 158.390625 47.292969 153.355469 C 51.710938 149.339844 58.71875 148.40625 60.175781 148.25 C 60.652344 147.953125 61.085938 147.625 61.492188 147.257812 C 63.128906 145.769531 64.101562 143.773438 65.230469 141.460938 C 66.84375 138.15625 68.847656 134.046875 73.609375 129.722656 C 74.195312 129.191406 74.820312 128.65625 75.464844 128.140625 C 81.09375 123.628906 85.597656 121.996094 89.222656 123.160156 C 90.832031 123.671875 95.003906 126.507812 96.496094 131.875 C 97.347656 134.714844 96.441406 137.730469 94.828125 140.753906 C 94.066406 142.179688 92.59375 144.390625 89.921875 146.820312 C 89.1875 147.484375 88.527344 148.019531 88.03125 148.402344 L 93.890625 155.738281 Z M 92.574219 156.28125 " fill-opacity="1" fill-rule="nonzero"/></g></g></g><g clip-path="url(#5199d468d1)"><g clip-path="url(#362fd21736)"><g clip-path="url(#97ca11a45f)"><path fill="#ffffff" d="M 94.9375 132.214844 C 95.867188 135.304688 95.042969 138.226562 93.605469 140.710938 C 91.03125 145.15625 86.476562 148.183594 86.476562 148.183594 L 92.148438 155.28125 C 89.542969 156.359375 86.917969 157.675781 84.335938 159.195312 C 76.808594 163.617188 69.664062 169.726562 64.582031 176.433594 L 60.199219 166.609375 C 60.199219 166.609375 54.675781 171.316406 48.847656 169.488281 C 45.144531 168.324219 42.976562 164.441406 44.851562 158.480469 C 47.617188 150.574219 60.539062 149.308594 60.539062 149.308594 C 66.976562 145.488281 65.261719 137.714844 76.148438 128.992188 C 86.996094 120.296875 92.34375 123.597656 94.9375 132.214844 Z M 94.9375 132.214844 " fill-opacity="1" fill-rule="nonzero"/></g></g></g><g clip-path="url(#114e8f2bdb)"><g clip-path="url(#e880dc417c)"><g clip-path="url(#d4ab30732a)"><path fill="#ffffff" d="M 59.527344 166.78125 C 59.527344 166.78125 55.125 168.984375 52.523438 168.710938 C 49.863281 168.433594 48.816406 167.21875 49.332031 167.175781 C 49.84375 167.128906 52.375 167.929688 53.523438 166.746094 C 54.671875 165.5625 51.703125 164.742188 53.109375 164.304688 C 54.519531 163.871094 56.554688 164.273438 57.847656 164.929688 C 59.136719 165.589844 59.527344 166.78125 59.527344 166.78125 Z M 59.527344 166.78125 " fill-opacity="1" fill-rule="nonzero"/></g></g></g><g clip-path="url(#ea38d18c97)"><g clip-path="url(#b5c9ad0b70)"><g clip-path="url(#e9f852740d)"><path fill="#ffffff" d="M 64.207031 147.34375 C 64.207031 147.34375 67.039062 145.378906 68.957031 141.574219 C 70.875 137.769531 72.660156 135.414062 73.464844 136.300781 C 74.273438 137.191406 74.332031 139.492188 71.355469 142.933594 C 68.378906 146.375 64.207031 147.34375 64.207031 147.34375 Z M 64.207031 147.34375 " fill-opacity="1" fill-rule="nonzero"/></g></g></g><g clip-path="url(#0ec651af9f)"><g clip-path="url(#8352a7adf4)"><g clip-path="url(#891922682c)"><path fill="#ffffff" d="M 94.164062 136.902344 C 94.152344 136.988281 93.851562 139.246094 93.605469 140.710938 C 91.03125 145.15625 86.476562 148.183594 86.476562 148.183594 L 92.148438 155.28125 C 89.542969 156.359375 86.917969 157.675781 84.335938 159.195312 C 84.753906 158.332031 84.863281 157.238281 84.242188 155.90625 C 82.402344 151.953125 80.410156 150.191406 80.410156 150.191406 C 80.410156 150.191406 78.128906 155.4375 74.945312 157.535156 C 71.789062 159.613281 64.886719 158.847656 64.78125 158.835938 C 64.839844 158.800781 68.066406 157.039062 69.558594 155.480469 C 71.070312 153.914062 71.070312 153.914062 71.070312 153.914062 C 68.597656 152.960938 66.316406 151.988281 67.695312 150.628906 C 67.695312 150.628906 75.496094 151.675781 81.699219 143.859375 C 87.902344 136.039062 85.664062 132.714844 88.632812 133.394531 C 91.597656 134.074219 89.957031 141.316406 91.648438 140.375 C 93.308594 139.453125 94.136719 136.988281 94.164062 136.902344 Z M 94.164062 136.902344 " fill-opacity="1" fill-rule="nonzero"/></g></g></g><g clip-path="url(#9fa3dc927d)"><g clip-path="url(#07fa4d83a4)"><g clip-path="url(#c8917d7abb)"><path fill="#1b2123" d="M 56.839844 149.851562 C 56.839844 149.851562 61.179688 149.691406 64.582031 148.410156 C 67.984375 147.132812 69.566406 144.285156 69.566406 144.285156 C 69.566406 144.285156 66.546875 146.425781 64.207031 147.34375 C 61.867188 148.261719 61.339844 148.339844 61.339844 148.339844 Z M 56.839844 149.851562 " fill-opacity="1" fill-rule="nonzero"/></g></g></g><g clip-path="url(#d281331afb)"><g clip-path="url(#0139119e16)"><g clip-path="url(#8be670303c)"><path fill="#1b2123" d="M 84.699219 145.109375 C 84.785156 145.808594 86.46875 148.128906 87.800781 149.828125 L 88.03125 148.402344 C 87.03125 147.210938 86.203125 146.136719 85.523438 145.15625 Z M 84.699219 145.109375 " fill-opacity="1" fill-rule="nonzero"/></g></g></g><g clip-path="url(#e76481e4c4)"><g clip-path="url(#6cc7a59aa6)"><g clip-path="url(#7594bb1ce3)"><path fill="#1b2123" d="M 88.988281 136.929688 C 88.988281 136.929688 89.152344 141.425781 82.933594 146.414062 C 76.71875 151.402344 71.4375 152.210938 71.4375 152.210938 C 71.4375 152.210938 76.925781 152.394531 82.941406 148.203125 C 86.660156 145.484375 85.675781 146.199219 87.496094 143.71875 C 89.3125 141.238281 88.988281 136.929688 88.988281 136.929688 Z M 88.988281 136.929688 " fill-opacity="1" fill-rule="nonzero"/></g></g></g><g clip-path="url(#2c6ee44292)"><g clip-path="url(#9155315470)"><g clip-path="url(#488549651e)"><path fill="#1b2123" d="M 74.757812 151.542969 C 73.480469 155.148438 69.117188 158.832031 64.414062 159.78125 C 64.414062 159.78125 66.265625 160.394531 70.363281 158.3125 C 74.457031 156.234375 76.8125 150.8125 76.8125 150.8125 Z M 74.757812 151.542969 " fill-opacity="1" fill-rule="nonzero"/></g></g></g><g clip-path="url(#396e120f71)"><g clip-path="url(#636f10094d)"><g clip-path="url(#a5474b4958)"><path fill="#1b2123" d="M 60.65625 167.933594 C 60.605469 167.617188 60.394531 166.597656 59.734375 165.871094 C 59.070312 165.140625 55.3125 164.808594 55.3125 164.808594 C 55.3125 164.808594 57.792969 165.699219 58.585938 166.308594 C 59.375 166.917969 59.765625 168.28125 59.765625 168.28125 Z M 60.65625 167.933594 " fill-opacity="1" fill-rule="nonzero"/></g></g></g></svg>